<svg width="153" height="43" viewBox="0 0 153 43" fill="none" xmlns="http://www.w3.org/2000/svg">
<path d="M74.7206 17.6506C75.2208 16.1839 76.1671 14.9103 77.4271 14.0083C78.6872 13.1063 80.1978 12.6209 81.7474 12.6203C83.297 12.6196 84.8081 13.1036 86.0689 14.0046C87.3297 14.9056 88.2771 16.1783 88.7785 17.6446L74.7206 17.6506ZM81.7691 8.46833C79.7902 8.43006 77.833 8.88649 76.0752 9.7962C74.3174 10.7059 72.8146 12.0401 71.703 13.6778C70.5915 15.3154 69.9064 17.2047 69.7099 19.1742C69.5135 21.1437 69.8118 23.131 70.578 24.956C70.69 25.177 70.747 25.297 70.778 25.356C71.6349 27.1534 72.9162 28.7154 74.5113 29.9072C76.1064 31.0991 77.9675 31.8851 79.934 32.1975C81.9006 32.5099 83.9136 32.3392 85.7995 31.7002C87.6854 31.0612 89.3876 29.9731 90.7593 28.5297L87.3836 25.209C86.684 25.9811 85.8302 26.5978 84.8774 27.0193C83.9246 27.4407 82.8939 27.6576 81.8521 27.6558C80.0887 27.6673 78.3798 27.0452 77.0364 25.9028C75.6931 24.7604 74.8046 23.1736 74.5327 21.4313H93.889V20.3894C93.8581 17.2023 92.5643 14.1577 90.2914 11.9234C88.0185 9.68908 84.9521 8.44761 81.765 8.47132M65.7994 25.817C64.4502 26.9868 62.7235 27.6292 60.9378 27.6258C59.9782 27.6418 59.025 27.4665 58.1338 27.1103C57.2426 26.7542 56.4312 26.2241 55.7469 25.5511C55.0627 24.8781 54.5192 24.0757 54.1482 23.1905C53.7772 22.3053 53.5862 21.3552 53.5862 20.3954C53.5862 19.4356 53.7772 18.4854 54.1482 17.6003C54.5192 16.7151 55.0627 15.9126 55.7469 15.2396C56.4312 14.5667 57.2426 14.0366 58.1338 13.6804C59.025 13.3242 59.9782 13.149 60.9378 13.165C62.4402 13.1667 63.9067 13.6234 65.1444 14.4748L67.5933 10.3942C65.6098 9.11175 63.2978 8.43009 60.9358 8.43132C59.3468 8.40226 57.768 8.69014 56.2915 9.27814C54.8149 9.86614 53.4704 10.7425 52.3364 11.8559C51.2024 12.9694 50.3016 14.2977 49.6867 15.7632C49.0718 17.2287 48.7551 18.8021 48.7551 20.3914C48.7551 21.9807 49.0718 23.554 49.6867 25.0195C50.3016 26.4851 51.2024 27.8134 52.3364 28.9268C53.4704 30.0403 54.8149 30.9166 56.2915 31.5046C57.768 32.0926 59.3468 32.3805 60.9358 32.3514C63.9541 32.359 66.8688 31.2512 69.1201 29.2407L69.9441 28.5068L66.5443 25.161L65.7994 25.817ZM44.7932 25.817C43.4432 26.9854 41.7171 27.6276 39.9316 27.6258C38.972 27.6418 38.0188 27.4665 37.1276 27.1103C36.2364 26.7542 35.425 26.2241 34.7407 25.5511C34.0565 24.8781 33.513 24.0757 33.142 23.1905C32.771 22.3053 32.58 21.3552 32.58 20.3954C32.58 19.4356 32.771 18.4854 33.142 17.6003C33.513 16.7151 34.0565 15.9126 34.7407 15.2396C35.425 14.5667 36.2364 14.0366 37.1276 13.6804C38.0188 13.3242 38.972 13.149 39.9316 13.165C41.4339 13.1671 42.9003 13.6238 44.1383 14.4748L46.5831 10.3942C44.6013 9.11189 42.291 8.4302 39.9306 8.43132C38.3416 8.40226 36.7627 8.69014 35.2862 9.27814C33.8097 9.86614 32.4652 10.7425 31.3312 11.8559C30.1972 12.9694 29.2964 14.2977 28.6815 15.7632C28.0667 17.2287 27.7499 18.8021 27.7499 20.3914C27.7499 21.9807 28.0667 23.554 28.6815 25.0195C29.2964 26.4851 30.1972 27.8134 31.3312 28.9268C32.4652 30.0403 33.8097 30.9166 35.2862 31.5046C36.7627 32.0926 38.3416 32.3805 39.9306 32.3514C42.9489 32.357 45.8632 31.2494 48.1159 29.2407L48.9398 28.5068L45.5402 25.161L44.7932 25.817ZM140.241 27.6398C138.816 27.6166 137.429 27.1727 136.256 26.3641C135.082 25.5554 134.173 24.4179 133.644 23.0946C133.115 21.7712 132.988 20.3209 133.28 18.9258C133.572 17.5308 134.27 16.2531 135.286 15.2534C136.302 14.2536 137.591 13.5764 138.99 13.3066C140.39 13.0369 141.838 13.1867 143.153 13.7372C144.467 14.2878 145.59 15.2145 146.38 16.4011C147.169 17.5876 147.591 18.9811 147.591 20.4064C147.574 22.3397 146.79 24.1872 145.412 25.5433C144.034 26.8994 142.174 27.6534 140.241 27.6398ZM140.241 8.46034C138.654 8.43129 137.077 8.71882 135.602 9.30613C134.127 9.89343 132.784 10.7687 131.652 11.8809C130.519 12.9931 129.619 14.3198 129.005 15.7836C128.391 17.2474 128.074 18.8189 128.074 20.4064C128.074 21.9938 128.391 23.5653 129.005 25.0292C129.619 26.493 130.519 27.8197 131.652 28.9319C132.784 30.044 134.127 30.9193 135.602 31.5066C137.077 32.0939 138.654 32.3815 140.241 32.3524C142.9 32.3586 145.488 31.499 147.615 29.9036V32.2265H152.388V20.4044C152.356 17.2112 151.06 14.1609 148.783 11.9219C146.506 9.68303 143.434 8.43821 140.241 8.46034ZM121.17 20.5334C121.17 20.6594 121.17 20.7983 121.17 20.9273V21.1813C121.17 21.2633 121.17 21.6713 121.17 23.2172C121.129 24.3858 120.64 25.494 119.805 26.3122C118.969 27.1305 117.851 27.5961 116.682 27.6128C115.513 27.6295 114.382 27.196 113.523 26.4019C112.665 25.6079 112.145 24.5142 112.07 23.3472V8.45832H107.298V23.4331C107.404 25.7628 108.387 27.9662 110.05 29.6014C111.712 31.2365 113.932 32.1824 116.263 32.2494H116.61C118.197 32.2327 119.757 31.8396 121.163 31.1025V33.6123C121.109 34.7721 120.601 35.8643 119.75 36.6535C118.898 37.4427 117.771 37.8656 116.61 37.831C113.686 37.888 111.111 33.7853 111.111 33.7853L107.583 35.9221L107.841 36.5611C108.518 38.2602 109.674 39.726 111.169 40.7801C112.663 41.8342 114.432 42.4313 116.26 42.4986H116.417H116.609C119.643 42.4986 125.508 40.6558 125.939 33.6403V8.46131H121.162V20.5334H121.17ZM101.677 26.0559V0.501953H96.9037V26.0549C96.7913 26.9841 96.8968 27.9267 97.2118 28.808C97.5268 29.6893 98.0427 30.4851 98.7186 31.1325C100.099 32.3704 102.452 32.3514 103.318 32.3514H104.377V27.6668H103.318C102.888 27.6692 102.474 27.5007 102.168 27.1983C101.861 26.8959 101.688 26.4844 101.684 26.0539M13.1509 27.6378C11.7258 27.6145 10.3393 27.1707 9.16562 26.3621C7.9919 25.5534 7.08329 24.4159 6.5539 23.0926C6.02452 21.7692 5.89797 20.3189 6.19014 18.9238C6.4823 17.5288 7.18016 16.2511 8.19607 15.2514C9.21197 14.2516 10.5006 13.5744 11.9002 13.3046C13.2997 13.0349 14.7478 13.1847 16.0625 13.7352C17.3772 14.2858 18.4999 15.2125 19.2897 16.3991C20.0794 17.5856 20.5009 18.979 20.5013 20.4044C20.4839 22.3377 19.7001 24.1852 18.3221 25.5413C16.944 26.8974 15.0843 27.6514 13.1509 27.6378ZM13.1509 8.45832C11.5638 8.42928 9.98674 8.71681 8.51196 9.30411C7.03717 9.89142 5.69419 10.7667 4.56149 11.8789C3.42879 12.9911 2.52908 14.3178 1.9149 15.7816C1.30071 17.2454 0.984375 18.8169 0.984375 20.4044C0.984375 21.9918 1.30071 23.5633 1.9149 25.0271C2.52908 26.4909 3.42879 27.8177 4.56149 28.9299C5.69419 30.042 7.03717 30.9173 8.51196 31.5047C9.98674 32.092 11.5638 32.3795 13.1509 32.3504C15.8114 32.3555 18.4015 31.4961 20.5313 29.9016V32.2244H25.2979V20.4044C25.2662 17.2112 23.9698 14.1609 21.6929 11.9219C19.4159 9.68303 16.3442 8.43821 13.1509 8.46034" fill="#012169"/>
</svg>
